<?xml version="1.0" standalone="no"?>
<!DOCTYPE svg PUBLIC "-//W3C//DTD SVG 20010904//EN"
 "http://www.w3.org/TR/2001/REC-SVG-20010904/DTD/svg10.dtd">
<svg version="1.0" xmlns="http://www.w3.org/2000/svg"
 width="478.000000pt" height="478.000000pt" viewBox="0 0 478.000000 478.000000"
 preserveAspectRatio="xMidYMid meet">
<metadata>
Created by potrace 1.14, written by Peter Selinger 2001-2017
</metadata>
<g transform="translate(0.000000,478.000000) scale(0.100000,-0.100000)"
fill="#000000" stroke="none">
<path d="M1358 4538 c-271 -187 -536 -500 -773 -913 -72 -126 -223 -428 -304
-611 l-63 -141 89 -134 c129 -196 189 -365 229 -654 25 -173 25 -680 1 -890
-9 -77 -14 -142 -11 -144 8 -9 142 50 204 91 36 24 93 71 128 107 35 35 64 62
65 59 1 -2 21 -24 44 -48 l42 -45 -34 -43 c-66 -84 -152 -345 -205 -622 -17
-91 -44 -221 -60 -290 -15 -69 -31 -155 -35 -192 l-7 -68 1221 0 c1188 0 1221
1 1221 19 0 10 -6 34 -14 52 -10 25 -12 47 -6 79 5 25 6 62 3 82 -3 21 -1 44
5 51 7 8 7 18 2 27 -5 9 -5 19 1 26 10 12 -7 63 -26 76 -5 4 -3 10 7 13 19 7
18 57 -1 63 -6 2 -11 9 -11 15 0 7 -9 18 -21 25 -18 11 -23 11 -35 -5 -12 -17
-13 -17 -9 4 2 13 0 25 -6 28 -8 6 -13 -8 -10 -27 0 -5 -5 -8 -13 -8 -9 0 -12
7 -9 23 4 17 0 15 -17 -10 -22 -32 -45 -37 -33 -7 3 8 1 14 -6 12 -12 -3 -256
467 -266 512 -5 22 4 32 66 80 79 61 189 188 249 285 111 182 165 336 181 521
11 129 7 284 -10 357 -9 36 -8 38 10 33 68 -21 62 -25 57 37 -3 37 -17 81 -40
127 l-35 71 36 18 c83 42 225 79 411 107 87 13 193 18 435 20 367 4 336 -8
278 109 -70 138 -230 266 -388 310 -33 9 -66 18 -74 21 -21 7 112 139 226 225
106 80 232 156 354 214 46 22 86 41 89 43 17 12 -208 91 -371 131 -239 58
-318 66 -624 66 -250 0 -294 -3 -410 -24 -71 -12 -147 -29 -167 -36 -48 -16
-48 -16 -2 116 41 117 109 258 166 341 67 99 77 92 -126 84 -233 -9 -358 -21
-545 -52 -423 -70 -757 -221 -978 -442 -75 -75 -72 -81 -34 83 25 110 48 291
56 440 5 113 -2 255 -15 255 -3 0 -41 -24 -82 -52z m644 -1949 c97 -20 368
-107 387 -125 2 -2 -7 -18 -21 -36 -14 -18 -35 -53 -47 -76 l-22 -44 -87 7
c-83 7 -122 22 -122 48 0 22 -95 150 -143 192 -49 43 -50 45 -25 45 15 0 51
-5 80 -11z m528 -29 c12 -8 9 -10 -12 -10 -16 0 -28 5 -28 10 0 13 20 13 40 0z
m170 -46 c64 -19 144 -90 184 -164 l27 -50 -276 0 c-238 0 -276 2 -282 15 -7
20 62 125 82 125 9 0 43 -12 76 -26 34 -14 63 -23 66 -21 2 3 -5 29 -17 58
-25 67 -25 67 3 72 46 9 85 6 137 -9z m-960 -58 c93 -29 282 -104 295 -117 12
-12 6 -12 -126 7 -62 8 -149 16 -193 17 l-81 3 -3 57 c-4 68 -3 68 108 33z
m1221 -39 c52 -23 57 -28 68 -70 16 -64 16 -64 -31 -58 -39 6 -45 11 -73 61
-17 30 -39 67 -49 83 l-19 28 24 -10 c13 -5 49 -20 80 -34z m-1033 -117 c123
-16 152 -27 167 -63 18 -45 27 -153 17 -212 l-9 -50 -12 30 c-36 88 -111 133
-198 120 -37 -5 -56 -16 -89 -48 -68 -68 -81 -149 -38 -235 30 -61 83 -102
131 -102 49 0 40 -14 -29 -46 -56 -26 -74 -29 -163 -29 -87 0 -107 3 -150 25
-45 22 -52 31 -69 80 -22 65 -37 269 -29 383 5 63 10 82 30 103 l24 26 28 -26
c15 -14 30 -26 34 -26 4 0 16 18 27 40 l20 40 118 0 c64 0 150 -5 190 -10z
m999 -53 c14 -14 10 -284 -4 -299 -10 -10 -13 -5 -13 23 -1 47 -33 114 -66
135 -71 47 -151 5 -180 -93 -34 -118 39 -245 134 -231 42 6 40 -4 -9 -43 -91
-72 -197 -71 -266 3 -45 48 -70 163 -69 320 1 89 3 99 26 123 33 36 55 47 120
62 60 13 313 13 327 0z m-721 -62 c15 -38 19 -121 5 -129 -4 -3 -11 -28 -14
-56 -6 -50 -13 -77 -45 -168 -33 -93 -129 -165 -239 -178 l-48 -6 44 27 c108
63 188 163 222 277 17 56 20 87 17 166 -3 53 -9 105 -13 116 -8 17 -7 17 24 1
19 -9 39 -31 47 -50z m809 29 l28 -26 -7 -101 c-7 -103 -37 -262 -58 -301 -22
-43 -63 -77 -112 -91 -86 -26 -93 -20 -38 33 59 57 91 106 122 187 21 52 24
78 24 193 1 72 4 132 7 132 3 0 19 -12 34 -26z m-1672 -86 c32 -71 52 -152 62
-257 3 -24 8 -53 11 -65 14 -46 -36 17 -72 88 -37 77 -50 148 -40 220 8 54 18
58 39 14z m1028 -65 c18 -20 33 -61 53 -143 15 -63 36 -134 46 -158 18 -40 18
-42 1 -33 -27 15 -88 86 -110 128 -22 44 -49 134 -53 178 -5 59 23 71 63 28z
m-1255 -140 c9 -30 19 -84 22 -121 l7 -67 36 65 c20 36 47 91 59 123 l24 58
20 -53 c28 -77 53 -113 148 -210 61 -63 97 -92 129 -104 90 -32 378 -10 476
37 70 34 114 92 162 214 23 61 48 122 55 138 13 27 13 27 25 -30 21 -95 59
-163 130 -234 90 -89 136 -104 310 -96 185 7 239 32 288 132 22 45 24 47 17
15 -16 -86 -91 -247 -164 -355 -171 -253 -437 -430 -739 -490 -128 -26 -393
-17 -518 18 -116 33 -265 107 -368 184 -101 75 -259 239 -252 262 3 9 17 43
30 76 46 108 61 205 61 387 0 180 4 183 42 51z m1921 -75 c-3 -8 -6 -5 -6 6
-1 11 2 17 5 13 3 -3 4 -12 1 -19z"/>
<path d="M2255 1454 c-254 -39 -501 -113 -566 -171 -19 -16 -14 -53 6 -53 7 0
46 15 86 33 154 70 279 101 547 136 145 18 169 27 159 55 -8 20 -102 20 -232
0z"/>
<path d="M3440 1786 c0 -8 -4 -58 -10 -112 -5 -55 -41 -441 -80 -859 -38 -418
-71 -772 -73 -788 l-4 -27 754 0 753 0 0 900 0 900 -670 0 c-566 0 -670 -2
-670 -14z"/>
</g>
</svg>
